<svg xmlns="http://www.w3.org/2000/svg" viewBox="0 0 999.8 737.7"><defs><style>.e9df9757-5140-4551-a74c-def9e53546fc{fill:#2461e7;}</style></defs><g id="b7e65654-8b35-479c-ba85-83a1f8c9b85e" data-name="Layer 2"><g id="a6b88984-4428-4358-ac42-6347e7c8c687" data-name="Layer 1"><path class="e9df9757-5140-4551-a74c-def9e53546fc" d="M373,398.7v72c-50.7,8-101.2,13.2-152.8,14V.3C323.1-.3,426,.2,528.9.1c39.5.1,78.6,3.5,116,17.2,113.5,35.1,155.9,187,72.7,273.4-16.7,17.6-37.4,28.6-58.6,40.1,30.1,8.2,58.8,16.5,81.7,40-47,18.1-92.6,32.7-140.4,47.2-3.5,1.1-6,1-9.1-1.8-11.9-10.9-26.8-14.4-42.3-15.8-12-1.1-24.2-1.5-36.3-1.6C466,398.6,419.7,398.7,373,398.7Zm.3-113.3c40-.1,79.6.4,119.5-.2,42.6-.3,97.3-5.4,107.8-55.8,7.8-38.9.4-80.9-41.5-95.5-15.8-5.9-32.1-8.2-48.7-8.3-45.7.1-91.4-.7-137.1.3Z"/><path class="e9df9757-5140-4551-a74c-def9e53546fc" d="M219.9,737.4V579l152.8-12.2v42.9c54.3,1.2,108.7.1,163.1-.2,59-.9,114.6-34.4,104.9-101.4l146-50.9C823.8,577,763.8,694.6,640.4,725.6a370.1,370.1,0,0,1-93.1,11.8C438.2,737.5,329.1,737.9,219.9,737.4Z"/><path class="e9df9757-5140-4551-a74c-def9e53546fc" d="M192.4,331.8c0,11.7.3,22.3-.2,32.9-.1,1.9-3.2,4.4-5.5,5.4-40.1,17-81,38-107.3,73.9-14,19.5-9.3,36.9,12.7,46.2a190.4,190.4,0,0,0,46.2,12.5c53.8,7.7,107.7,4.8,161.4-1,134.4-14.6,265.1-45.9,392.6-90.6,70.9-24.2,139.8-55,198.5-102.3,7.3-5.5,13.3-13.3,18.4-21.1,8.3-12.6,5.5-24.5-8.3-30.8-11.5-5.2-24.1-9.7-36.6-10.9-28-2.5-56.2-3.1-84.3-3.5,2.6-10.7,5.2-21,8.1-32.8,30.8,0,62.2-.4,93.5.2,25.3.4,50.4,3.5,74.2,12.5,30.2,10.9,54.1,30.9,39.7,65.6C970.1,346.4,866,396.3,809.3,422.3,629.8,504.1,232.8,600,45.7,535.4c-74.2-28.5-46.8-92.2,2.8-130.5C91.4,370.5,140.5,349.3,192.4,331.8Z"/></g></g></svg>