<svg xmlns="http://www.w3.org/2000/svg" viewBox="0 0 859.7 155.5"><defs><style>.f90d41cf-4803-4aac-a07e-bb0299b004d9{fill:#2461e7;}</style></defs><g id="be41fb8b-0aad-471e-9765-82cab7902050" data-name="Layer 2"><g id="a6822b55-b458-410c-b3f3-87de5e47e79d" data-name="Layer 1"><path class="f90d41cf-4803-4aac-a07e-bb0299b004d9" d="M78,83.4v15a213.8,213.8,0,0,1-32,2.9V.1C67.6-.1,89.1,0,110.6,0c8.2,0,16.4.7,24.2,3.6,23.8,7.4,32.6,39.1,15.3,57.2-3.5,3.7-7.9,6-12.3,8.4,6.3,1.7,12.3,3.4,17.1,8.3-9.9,3.8-19.4,6.9-29.4,9.9a1.7,1.7,0,0,1-1.9-.4c-2.5-2.3-5.6-3-8.8-3.3s-5.1-.3-7.6-.3C97.4,83.3,87.8,83.4,78,83.4Zm.1-23.7c8.3,0,16.6.1,24.9-.1s20.4-1.1,22.6-11.6c1.6-8.2.1-17-8.7-20a29.5,29.5,0,0,0-10.2-1.7c-9.5,0-19.1-.2-28.6,0Z"/><path class="f90d41cf-4803-4aac-a07e-bb0299b004d9" d="M46,154.2V121.1l31.9-2.6v9c11.4.2,22.8,0,34.1-.1s24-7.2,22-21.2l30.5-10.6c7.8,25-4.8,49.6-30.6,56.1a75.6,75.6,0,0,1-19.5,2.5C91.6,154.2,68.8,154.3,46,154.2Z"/><path class="f90d41cf-4803-4aac-a07e-bb0299b004d9" d="M40.2,69.4c0,2.4.1,4.6,0,6.8,0,.5-.7,1-1.2,1.2C30.6,81,22.1,85.3,16.6,92.8c-2.9,4.1-1.9,7.8,2.7,9.7a35,35,0,0,0,9.6,2.6c11.3,1.6,22.5,1,33.8-.2A373.4,373.4,0,0,0,144.8,86c14.8-5.1,29.2-11.5,41.5-21.4a17.7,17.7,0,0,0,3.8-4.4c1.8-2.7,1.2-5.2-1.7-6.5a26.3,26.3,0,0,0-7.7-2.3c-5.8-.5-11.7-.6-17.6-.7.5-2.2,1.1-4.4,1.7-6.8,6.4,0,13-.1,19.5,0a46,46,0,0,1,15.6,2.6c6.3,2.3,11.3,6.5,8.3,13.7-5.3,12.2-27.1,22.7-39,28.1C131.7,105.4,48.7,125.5,9.6,111.9-6,106-.2,92.7,10.1,84.7S29.4,73,40.2,69.4Z"/><path class="f90d41cf-4803-4aac-a07e-bb0299b004d9" d="M302.8,30.5V57.9H253.3V79.6h36.5v26.2H253.3v48.4H218.9V30.5Z"/><path class="f90d41cf-4803-4aac-a07e-bb0299b004d9" d="M362.3,59.8a33.9,33.9,0,0,1,17.8-4.9V91.6h-9.7c-7.5,0-13,1.4-16.7,4.4s-5.4,8-5.4,15.2v43H313.9V55.7h34.4V73.1A44.3,44.3,0,0,1,362.3,59.8Z"/><path class="f90d41cf-4803-4aac-a07e-bb0299b004d9" d="M391.6,41.6A16.1,16.1,0,0,1,386,29.1a16.8,16.8,0,0,1,5.6-12.9c3.6-3.3,8.5-5,14.6-5s10.8,1.7,14.5,5a16.7,16.7,0,0,1,5.5,12.9,16,16,0,0,1-5.5,12.5c-3.7,3.3-8.5,5-14.5,5S395.2,44.9,391.6,41.6Zm31.7,14.1v98.5H388.8V55.7Z"/><path class="f90d41cf-4803-4aac-a07e-bb0299b004d9" d="M533,111.9H467.8c.4,5.4,1.9,9.4,4.5,12.1a13.9,13.9,0,0,0,10.1,3.9c5.8,0,9.9-2.6,12.3-7.7h36.7a43.1,43.1,0,0,1-8.9,18.2,45.3,45.3,0,0,1-16.6,12.5,51.4,51.4,0,0,1-22.1,4.6,53.6,53.6,0,0,1-25.9-6.2,44.5,44.5,0,0,1-17.7-17.5c-4.3-7.6-6.4-16.6-6.4-26.9s2.1-19.2,6.3-26.8a43.6,43.6,0,0,1,17.7-17.4,58,58,0,0,1,51.8-.2,43.3,43.3,0,0,1,17.6,17.1c4.2,7.4,6.3,16.2,6.3,26.3A73.1,73.1,0,0,1,533,111.9ZM498.4,95.3c0-4.3-1.4-7.6-4.2-10a15.7,15.7,0,0,0-10.6-3.6,15.3,15.3,0,0,0-10.3,3.5c-2.7,2.2-4.5,5.6-5.3,10.1Z"/><path class="f90d41cf-4803-4aac-a07e-bb0299b004d9" d="M635.5,66.2c6.7,7.5,10,17.8,10,30.6v57.4H611.1V101.4c0-5.6-1.5-10-4.4-13.3s-6.8-4.8-11.7-4.8-9.2,1.6-12.2,4.8-4.3,7.7-4.3,13.3v52.8H544V55.7h34.5V69.8A32.8,32.8,0,0,1,590.7,59a36.8,36.8,0,0,1,17.8-4.1C619.8,54.9,628.8,58.6,635.5,66.2Z"/><path class="f90d41cf-4803-4aac-a07e-bb0299b004d9" d="M660.9,78.2a41.4,41.4,0,0,1,15.2-17.5,39,39,0,0,1,21.4-6.2,34.6,34.6,0,0,1,16.9,4,29.1,29.1,0,0,1,11.7,10.8v-45h34.6V154.2H726.1V140.5a29.2,29.2,0,0,1-11.4,10.9,35.5,35.5,0,0,1-17.4,4.1,38.7,38.7,0,0,1-21.3-6.2,41.6,41.6,0,0,1-15.1-17.6c-3.7-7.7-5.5-16.6-5.5-26.8S657.2,85.8,660.9,78.2ZM721.1,90a16.9,16.9,0,0,0-12.7-5.5,16.8,16.8,0,0,0-12.8,5.4q-5.1,5.4-5.1,15t5.1,15a16.5,16.5,0,0,0,12.8,5.5,16.9,16.9,0,0,0,12.7-5.4c3.5-3.6,5.2-8.7,5.2-15.1S724.6,93.6,721.1,90Z"/><path class="f90d41cf-4803-4aac-a07e-bb0299b004d9" d="M795,151a41.7,41.7,0,0,1-16.5-12.3,31.6,31.6,0,0,1-6.7-17.6h33.3a10.7,10.7,0,0,0,4.4,7.3,15.1,15.1,0,0,0,9.1,2.7,11.1,11.1,0,0,0,6.7-1.8,5.6,5.6,0,0,0,2.5-4.6c0-2.4-1.4-4.2-4.1-5.4a78.2,78.2,0,0,0-13.3-3.9,112.2,112.2,0,0,1-17.6-4.7,30.3,30.3,0,0,1-12.2-8.6c-3.4-4-5.2-9.4-5.2-16.2a27.5,27.5,0,0,1,4.8-15.8c3.1-4.8,7.8-8.6,13.9-11.4s13.6-4.2,22.3-4.2c12.8,0,23,3.2,30.3,9.5s11.7,14.6,12.8,24.9h-31a11.7,11.7,0,0,0-4.2-7.3c-2.1-1.7-5-2.5-8.6-2.5s-5,.5-6.5,1.6a5.1,5.1,0,0,0-2.1,4.4c0,2.3,1.3,4.1,4,5.3s7,2.5,13,3.8a108.6,108.6,0,0,1,17.8,5.1,33,33,0,0,1,12.5,9c3.5,4.2,5.3,9.8,5.3,17a24.9,24.9,0,0,1-5,15.4c-3.3,4.6-8.1,8.2-14.2,10.8s-13.4,4-21.7,4A59.8,59.8,0,0,1,795,151Z"/></g></g></svg>